HIERARCHY
ROOT root
{
	OFFSET	0	13.1	24.9
	CHANNELS 6  Xposition Yposition Zposition Xrotation Yrotation Zrotation
	JOINT spine_1
	{
		OFFSET	0	9.99999	0
		CHANNELS 3  Xrotation Yrotation Zrotation
		JOINT spine_2
		{
			OFFSET	0	112	-10
			CHANNELS 3  Xrotation Yrotation Zrotation
			JOINT spine_3
			{
				OFFSET	0	206.5	19.3
				CHANNELS 3  Xrotation Yrotation Zrotation
				JOINT spine_4
				{
					OFFSET	0	110.4	14.6
					CHANNELS 3  Xrotation Yrotation Zrotation
					JOINT neck_1
					{
						OFFSET	0	71.8	-50.3
						CHANNELS 3  Xrotation Yrotation Zrotation
						JOINT neck_2
						{
							OFFSET	0	86.2	-25.8
							CHANNELS 3  Xrotation Yrotation Zrotation
							JOINT head_ee
							{
								OFFSET	0	179.8	-8.7
								CHANNELS 3  Xrotation Yrotation Zrotation
								End Site
								{
									OFFSET	1	0	0
								}
							}
						}
					}
					JOINT left_clavicle
					{
						OFFSET	-43.2	22.4	-70.8
						CHANNELS 3  Xrotation Yrotation Zrotation
						JOINT left_shoulder
						{
							OFFSET	-93.9	-5.79999	48.7
							CHANNELS 3  Xrotation Yrotation Zrotation
							JOINT left_elbow
							{
								OFFSET	-291.4	-30.8	15.2
								CHANNELS 3  Xrotation Yrotation Zrotation
								JOINT left_lowarm_twist
								{
									OFFSET	-110.7	-3.89999	13.6
									CHANNELS 3  Xrotation Yrotation Zrotation
									JOINT left_hand
									{
										OFFSET	-110.7	-3.89999	13.6
										CHANNELS 3  Xrotation Yrotation Zrotation
										JOINT left_ee
										{
											OFFSET	-80.8	-5.10001	12.1
											CHANNELS 3  Xrotation Yrotation Zrotation
											End Site
											{
												OFFSET	1	0	0
											}
										}
									}
								}
							}
						}
					}
					JOINT right_clavicle
					{
						OFFSET	43.2	22.4	-70.8
						CHANNELS 3  Xrotation Yrotation Zrotation
						JOINT right_shoulder
						{
							OFFSET	93.9	-5.79999	48.7
							CHANNELS 3  Xrotation Yrotation Zrotation
							JOINT right_elbow
							{
								OFFSET	291.4	-30.8	15.2
								CHANNELS 3  Xrotation Yrotation Zrotation
								JOINT right_lowarm_twist
								{
									OFFSET	110.7	-3.89999	13.6
									CHANNELS 3  Xrotation Yrotation Zrotation
									JOINT right_hand
									{
										OFFSET	110.7	-3.89999	13.6
										CHANNELS 3  Xrotation Yrotation Zrotation
										JOINT right_ee
										{
											OFFSET	80.8	-5.10001	12.1
											CHANNELS 3  Xrotation Yrotation Zrotation
											End Site
											{
												OFFSET	1	0	0
											}
										}
									}
								}
							}
						}
					}
				}
			}
		}
	}
	JOINT left_hip
	{
		OFFSET	-82.8	-127.5	0.300001
		CHANNELS 3  Xrotation Yrotation Zrotation
		JOINT left_knee
		{
			OFFSET	-28.2	-396.7	2.2
			CHANNELS 3  Xrotation Yrotation Zrotation
			JOINT left_ankle
			{
				OFFSET	-11.7	-411.3	35.4
				CHANNELS 3  Xrotation Yrotation Zrotation
				JOINT left_toes
				{
					OFFSET	0	-60	-88.6
					CHANNELS 3  Xrotation Yrotation Zrotation
					JOINT left_foot_ee
					{
						OFFSET	-22.5	-16.5	-42.2
						CHANNELS 3  Xrotation Yrotation Zrotation
						End Site
						{
							OFFSET	1	0	0
						}
					}
				}
			}
		}
	}
	JOINT right_hip
	{
		OFFSET	82.8	-127.5	0.300001
		CHANNELS 3  Xrotation Yrotation Zrotation
		JOINT right_knee
		{
			OFFSET	28.2	-396.7	2.2
			CHANNELS 3  Xrotation Yrotation Zrotation
			JOINT right_ankle
			{
				OFFSET	11.7	-411.3	35.4
				CHANNELS 3  Xrotation Yrotation Zrotation
				JOINT right_toes
				{
					OFFSET	0	-60	-88.6
					CHANNELS 3  Xrotation Yrotation Zrotation
					JOINT right_foot_ee
					{
						OFFSET	22.5	-16.5	-42.2
						CHANNELS 3  Xrotation Yrotation Zrotation
						End Site
						{
							OFFSET	1	0	0
						}
					}
				}
			}
		}
	}
}
MOTION
Frames: 10
Frame Time: 0.02
3501.02390081 722.921 -1561.51258825 3.32229767093 44.5151210909 -2.49065920578 1.44517 0.794128 0.267692 1.44487 0.775484 0.317685 1.44923 0.703171 0.45591 1.44976 0.766348 0.339132 -14.0576 16.794 -1.61722 -15.0143 33.0218 4.18635 -0.0 0.0 -0.0 -1.59445 4.09065 -2.4708 -23.531 -27.7751 74.846 0.664346 -18.2163 0.106509 30.5748 0.0482311 -3.85943 4.16494 -27.8913 14.9239 -0.0 0.0 -0.0 12.0686 28.5281 -23.2291 -18.1852 21.1081 -63.3053 0.510153 14.1827 -0.0634651 11.1034 -0.256946 1.39288 2.33165 -27.4075 -24.3824 0.0 0.0 0.0 18.7479 11.1057 -10.8114 -33.1322 -0.0885919 5.01372 -10.9229 8.0474 1.63048 39.9469 -0.0 -0.0 -0.0 0.0 -0.0 0.862758 33.9851 -8.51593 -21.5951 -0.273274 -3.28309 25.4409 -5.26777 3.38257 28.9935 -0.0 -0.0 0.0 0.0 0.0 
3503.77197142 722.921 -1563.76404437 3.22482776527 42.7270851817 -2.34939241253 1.44517 0.794128 0.267692 1.44487 0.775484 0.317685 1.44923 0.703171 0.45591 1.44976 0.766348 0.339132 -14.0576 16.794 -1.61722 -15.0143 33.0218 4.18635 -0.0 0.0 -0.0 -1.59445 4.09065 -2.4708 -23.531 -27.7751 74.846 0.664346 -18.2163 0.106509 30.5748 0.0482311 -3.85943 4.16494 -27.8913 14.9239 -0.0 0.0 -0.0 12.0686 28.5281 -23.2291 -18.1852 21.1081 -63.3053 0.510153 14.1827 -0.0634651 11.1034 -0.256946 1.39288 2.33165 -27.4075 -24.3824 0.0 0.0 0.0 18.7479 11.1057 -10.8114 -33.1322 -0.0885919 5.01372 -10.9229 8.0474 1.63048 39.9469 -0.0 -0.0 -0.0 0.0 -0.0 0.862758 33.9851 -8.51593 -21.5951 -0.273274 -3.28309 25.4409 -5.26777 3.38257 28.9935 -0.0 -0.0 0.0 0.0 0.0 
3496.75451627 721.587 -1570.04386382 2.42886144025 44.0856038722 -1.56107433077 1.54913 0.733741 0.261597 1.54888 0.715608 0.307759 1.55278 0.646955 0.433893 1.55322 0.70736 0.32627 -11.5139 17.4678 -0.296707 -12.1372 33.2935 4.8017 -0.0 0.0 -0.0 -2.19678 2.82066 -3.79941 -24.8489 -27.2035 76.5549 0.704714 -19.2438 0.119472 31.4917 0.0178466 -3.97259 4.32284 -27.502 16.1874 -0.0 0.0 -0.0 12.3109 28.5237 -23.781 -17.7895 21.4366 -63.02 0.603518 16.645 -0.0882865 12.3945 -0.269179 1.55734 2.97066 -28.4178 -28.5809 0.0 0.0 0.0 20.9882 8.0352 -11.5834 -32.8455 -0.0754001 4.97171 -15.6105 7.71142 2.34147 40.2176 -0.0 -0.0 -0.0 0.0 -0.0 1.26023 37.5889 -9.48864 -21.4369 -0.275796 -3.25894 24.5626 -5.17527 3.28101 29.7621 -0.0 -0.0 0.0 0.0 0.0 
3485.20930927 720.743 -1569.40931326 2.13282335967 44.5849755298 -1.622782765 1.55573 0.844948 0.268692 1.55539 0.826138 0.321916 1.5601 0.753073 0.467997 1.56073 0.817532 0.343185 -11.5256 17.8735 0.329257 -12.1682 33.6661 5.53199 -0.0 0.0 -0.0 -2.54465 1.96612 -4.60188 -25.3775 -26.5974 78.1155 0.683902 -18.7157 0.112703 32.4142 -0.01455 -4.08595 4.34672 -27.2848 16.4732 -0.0 0.0 -0.0 12.3814 28.0876 -23.9986 -16.9074 22.1233 -62.3806 0.771058 20.9048 -0.142246 13.8138 -0.278347 1.73838 3.53312 -28.8487 -32.3133 0.0 0.0 0.0 22.6776 5.70687 -12.6243 -32.3211 -0.0518147 4.89471 -19.4023 5.517 2.92073 40.24 -0.0 -0.0 -0.0 0.0 -0.0 0.775197 37.9772 -8.72781 -21.4532 -0.275539 -3.26142 25.8622 -5.95163 3.43018 30.9734 -0.0 -0.0 0.0 0.0 0.0 
3476.64426373 717.569 -1566.44422898 0.787306131414 46.8463944216 -0.510383743242 1.78027 0.841856 0.328109 1.77996 0.819272 0.381016 1.7855 0.737544 0.521932 1.78604 0.810716 0.398897 -10.4196 18.144 0.318257 -10.9188 34.0528 5.22795 -0.0 0.0 -0.0 -2.36882 1.48849 -4.34411 -26.1521 -26.0964 79.0743 0.644851 -17.7157 0.100496 33.2619 -0.0459317 -4.18966 4.33964 -27.1736 16.4921 -0.0 0.0 -0.0 12.2858 27.8883 -23.8061 -15.8707 22.7515 -61.6877 0.944716 25.0785 -0.210122 15.0555 -0.282688 1.89691 3.90593 -29.3632 -34.8982 0.0 0.0 0.0 24.0251 4.42351 -12.3962 -31.8726 -0.0322014 4.82867 -21.0079 4.51291 3.16752 40.3738 -0.0 -0.0 -0.0 0.0 -0.0 0.749255 39.2896 -8.7989 -19.8803 -0.297044 -3.02105 24.9703 -6.21501 3.32736 31.6116 -0.0 -0.0 0.0 0.0 0.0 
3458.9181496 714.151 -1562.00429607 0.424283331974 46.9851840854 0.0656209058428 1.82588 0.726415 0.333981 1.82567 0.703691 0.379529 1.83041 0.624495 0.499232 1.83073 0.695501 0.394337 -8.78251 18.717 -0.874451 -9.07116 35.7203 3.66613 -0.0 0.0 -0.0 -2.06414 2.38582 -3.61777 -27.9279 -25.481 79.8796 0.605998 -16.7096 0.0889981 33.6754 -0.0617937 -4.24007 4.06066 -24.7882 16.014 -0.0 0.0 -0.0 12.0864 27.5976 -23.3884 -15.9045 23.1854 -61.2729 1.06855 27.8927 -0.265363 15.8427 -0.28366 1.99745 4.23165 -28.9303 -37.1547 0.0 0.0 0.0 25.6219 2.8316 -13.1471 -30.8522 0.0104823 4.67791 -23.0394 4.99823 3.47258 40.2938 -0.0 -0.0 -0.0 0.0 -0.0 -0.0343099 40.9944 -8.02139 -20.4777 -0.289654 -3.11241 23.8405 -4.80038 3.19707 32.3708 -0.0 -0.0 0.0 0.0 0.0 
3443.80245392 708.542 -1560.56938465 -1.39092008338 48.3855463701 1.40270359337 2.08568 0.505466 0.157016 2.08556 0.49445 0.188862 2.08722 0.453932 0.272206 2.08746 0.491225 0.197099 -9.55907 19.3685 1.24591 -9.97753 35.6346 6.17646 -0.0 0.0 -0.0 -2.52999 3.21911 -4.36307 -28.5326 -25.5485 81.7413 0.549526 -15.2282 0.0734607 34.0306 -0.075709 -4.28329 4.08724 -25.251 15.9296 -0.0 0.0 -0.0 12.0458 27.5202 -23.3055 -15.3508 23.2759 -60.9636 1.26819 32.1366 -0.365297 16.4437 -0.283472 2.07422 4.41096 -29.8761 -38.5121 0.0 0.0 0.0 26.2557 2.18533 -13.0715 -27.1723 0.141943 4.12856 -20.6024 5.69755 3.10206 40.2622 -0.0 -0.0 -0.0 0.0 -0.0 -0.451145 41.8601 -7.32787 -19.1165 -0.305104 -2.90413 24.0329 -4.44885 3.22043 32.6675 -0.0 -0.0 0.0 0.0 0.0 
3432.98613574 706.554 -1559.93569312 -2.12217804082 49.394206683 2.97576699607 2.41128 0.391992 -0.110873 2.41119 0.398252 -0.0857041 2.4106 0.407006 -0.0172191 2.41083 0.399178 -0.081283 -10.0183 19.377 0.558905 -10.5306 36.1759 5.6918 -0.0 0.0 -0.0 -2.12675 4.44548 -3.40476 -29.7657 -25.3036 81.2048 0.461312 -12.8724 0.0520399 34.736 -0.104141 -4.36885 3.90086 -23.9493 15.4126 -0.0 0.0 -0.0 11.9529 27.3616 -23.1136 -13.8973 23.8207 -60.7752 1.33596 33.4947 -0.402026 17.0248 -0.282525 2.14843 4.56 -29.9483 -39.6114 0.0 0.0 0.0 27.2493 1.29186 -14.2701 -25.0946 0.20049 3.81509 -22.0392 7.61378 3.31537 40.3147 -0.0 -0.0 -0.0 0.0 -0.0 -2.56806 42.0634 -6.70964 -17.1259 -0.318782 -2.59904 23.2498 -4.49114 3.12788 32.4458 -0.0 -0.0 0.0 0.0 0.0 
3414.33918 701.218 -1558.44429548 -2.56067333907 51.3407936426 3.01885802063 2.48185 0.281267 -0.145008 2.48181 0.289924 -0.126816 2.48117 0.307082 -0.0764121 2.48128 0.29116 -0.123951 -10.5282 19.4194 1.09432 -11.1159 35.9786 6.40318 -0.0 0.0 -0.0 -2.42688 5.28935 -3.82024 -29.7879 -25.2324 82.579 0.390896 -10.9592 0.0374988 34.6402 -0.10022 -4.35726 3.90448 -23.1237 15.8914 -0.0 0.0 -0.0 11.8696 26.9759 -22.9705 -12.9578 24.1928 -60.4759 1.43161 35.3413 -0.456098 17.7275 -0.280375 2.23816 4.64864 -29.4579 -40.2571 0.0 0.0 0.0 27.7601 0.541615 -14.6992 -20.7764 0.285602 3.15806 -22.014 7.73061 3.31145 40.1938 -0.0 -0.0 -0.0 0.0 -0.0 -3.98307 42.4716 -5.89058 -16.9983 -0.319297 -2.57946 22.1985 -4.5347 3.00209 32.5115 -0.0 -0.0 0.0 0.0 0.0 
3386.60870078 697.424 -1554.9469308 -4.46334184505 53.1149934324 5.11068203971 2.99034 -0.0640903 -0.291133 2.99039 -0.045435 -0.294621 2.99061 0.00195227 -0.298097 2.99049 -0.0451509 -0.294665 -11.3617 20.0106 1.8961 -12.1168 36.7094 7.6683 -0.0 0.0 -0.0 -2.6987 6.3248 -4.13956 -30.0674 -25.1321 83.7255 0.26769 -7.55386 0.0176718 34.9914 -0.114696 -4.39975 3.70898 -21.0011 15.7121 -0.0 0.0 -0.0 11.825 26.7482 -22.8959 -11.1508 24.4462 -59.6243 1.61196 38.6051 -0.564615 19.1134 -0.272909 2.41501 4.7982 -28.9079 -41.3826 0.0 0.0 0.0 27.4619 -0.190033 -14.3673 -15.2644 0.321975 2.31345 -19.6208 9.54444 2.94959 40.1107 -0.0 -0.0 -0.0 0.0 -0.0 -6.66563 42.8144 -4.41392 -15.1861 -0.321906 -2.30145 22.215 -3.71239 3.00617 32.4409 -0.0 -0.0 0.0 0.0 0.0 
